<svg width="24" height="23" viewBox="0 0 24 23" fill="none" xmlns="http://www.w3.org/2000/svg">
<path d="M7.07693 22.0339C6.51453 22.0339 6.0406 21.8628 5.65513 21.5206C5.26964 21.1784 5.0769 20.7577 5.0769 20.2585C5.0769 19.7592 5.26964 19.3385 5.65513 18.9963C6.0406 18.6541 6.51453 18.483 7.07693 18.483C7.63931 18.483 8.11324 18.6541 8.49873 18.9963C8.8842 19.3385 9.07693 19.7592 9.07693 20.2585C9.07693 20.7577 8.8842 21.1784 8.49873 21.5206C8.11324 21.8628 7.63931 22.0339 7.07693 22.0339ZM19.5897 22.0339C19.0274 22.0339 18.5534 21.8628 18.1679 21.5206C17.7825 21.1784 17.5897 20.7577 17.5897 20.2585C17.5897 19.7592 17.7825 19.3385 18.1679 18.9963C18.5534 18.6541 19.0274 18.483 19.5897 18.483C20.1521 18.483 20.6261 18.6541 21.0115 18.9963C21.397 19.3385 21.5898 19.7592 21.5898 20.2585C21.5898 20.7577 21.397 21.1784 21.0115 21.5206C20.6261 21.8628 20.1521 22.0339 19.5897 22.0339ZM5.17437 3.55092L8.73333 10.1975H17.5795C17.7333 10.1975 17.8701 10.1634 17.9897 10.0951C18.1094 10.0268 18.212 9.93196 18.2974 9.81058L21.7846 4.18825C21.8872 4.02134 21.8957 3.8734 21.8103 3.74442C21.7248 3.61542 21.5795 3.55092 21.3744 3.55092H5.17437ZM4.52307 2.36728H21.8821C22.4616 2.36728 22.8975 2.57707 23.1898 2.99665C23.4821 3.41623 23.4974 3.84834 23.2359 4.29298L19.4256 10.457C19.2325 10.7453 18.9816 10.9714 18.6731 11.1353C18.3645 11.2992 18.0256 11.3812 17.6564 11.3812H8.13333L6.51283 14.0216C6.37608 14.2037 6.3718 14.401 6.5 14.6134C6.6282 14.8259 6.82051 14.9321 7.07693 14.9321H21.5898V16.1157H7.07693C6.29916 16.1157 5.71881 15.8248 5.3359 15.2428C4.95299 14.6608 4.94359 14.0762 5.3077 13.4889L7.3128 10.3159L2.41023 1.18364H0V0H3.2564L4.52307 2.36728Z" fill="black"/>
</svg>
