<!DOCTYPE svg PUBLIC "-//W3C//DTD SVG 1.1//EN" "http://www.w3.org/Graphics/SVG/1.1/DTD/svg11.dtd">
<!-- Uploaded to: SVG Repo, www.svgrepo.com, Transformed by: SVG Repo Mixer Tools -->
<svg width="135px" height="135px" viewBox="0 0 24 24" fill="none" xmlns="http://www.w3.org/2000/svg">
<g id="SVGRepo_bgCarrier" stroke-width="0"/>
<g id="SVGRepo_tracerCarrier" stroke-linecap="round" stroke-linejoin="round"/>
<g id="SVGRepo_iconCarrier"> <path d="M9 21H15M9 21V16M9 21H3.6C3.26863 21 3 20.7314 3 20.4V16.6C3 16.2686 3.26863 16 3.6 16H9M15 21V9M15 21H20.4C20.7314 21 21 20.7314 21 20.4V3.6C21 3.26863 20.7314 3 20.4 3H15.6C15.2686 3 15 3.26863 15 3.6V9M15 9H9.6C9.26863 9 9 9.26863 9 9.6V16" stroke="#637381" stroke-width="0.24000000000000005"/> </g>
</svg>